<svg id="visual" viewBox="0 0 900 1400" width="900" height="1400" xmlns="http://www.w3.org/2000/svg" xmlns:xlink="http://www.w3.org/1999/xlink" version="1.1"><rect x="0" y="0" width="900" height="1400" fill="#001d4f"></rect><defs><linearGradient id="grad1_0" x1="0%" y1="0%" x2="100%" y2="100%"><stop offset="30%" stop-color="#001d4f" stop-opacity="1"></stop><stop offset="70%" stop-color="#001d4f" stop-opacity="1"></stop></linearGradient></defs><defs><linearGradient id="grad2_0" x1="0%" y1="0%" x2="100%" y2="100%"><stop offset="30%" stop-color="#001d4f" stop-opacity="1"></stop><stop offset="70%" stop-color="#001d4f" stop-opacity="1"></stop></linearGradient></defs><g transform="translate(900, 0)"><path d="M0 832.2C-93.6 721.9 -187.2 611.5 -321 556C-454.8 500.4 -628.8 499.6 -720.7 416.1C-812.6 332.5 -822.4 166.3 -832.2 0L0 0Z" fill="#df334f"></path></g><g transform="translate(0, 1400)"><path d="M0 -832.2C102.9 -738 205.9 -643.9 338.5 -586.3C471.1 -528.7 633.5 -507.7 720.7 -416.1C807.9 -324.5 820 -162.2 832.2 0L0 0Z" fill="#df334f"></path></g></svg>