<svg id="visual" viewBox="0 0 900 675" width="900" height="675" xmlns="http://www.w3.org/2000/svg" xmlns:xlink="http://www.w3.org/1999/xlink" version="1.1"><rect x="0" y="0" width="900" height="675" fill="#001d4f"></rect><defs><linearGradient id="grad1_0" x1="25%" y1="0%" x2="100%" y2="100%"><stop offset="23.333333333333336%" stop-color="#001d4f" stop-opacity="1"></stop><stop offset="76.66666666666666%" stop-color="#001d4f" stop-opacity="1"></stop></linearGradient></defs><defs><linearGradient id="grad2_0" x1="0%" y1="0%" x2="75%" y2="100%"><stop offset="23.333333333333336%" stop-color="#001d4f" stop-opacity="1"></stop><stop offset="76.66666666666666%" stop-color="#001d4f" stop-opacity="1"></stop></linearGradient></defs><g transform="translate(900, 0)"><path d="M0 534.4C-30.1 492.9 -60.2 451.4 -103.2 452.4C-146.3 453.4 -202.4 496.9 -231.9 481.5C-261.4 466 -264.3 391.7 -275.6 345.6C-286.9 299.4 -306.4 281.5 -320.6 255.6C-334.7 229.8 -343.3 196.1 -346.9 167C-350.4 138 -348.8 113.6 -379.2 86.6C-409.6 59.5 -472 29.7 -534.4 0L0 0Z" fill="#df334f"></path></g><g transform="translate(0, 675)"><path d="M0 -534.4C29.2 -487.9 58.4 -441.3 100.1 -438.7C141.9 -436.1 196.2 -477.4 224.3 -465.8C252.4 -454.2 254.3 -389.8 292.4 -366.7C330.5 -343.6 404.9 -361.9 417.8 -333.2C430.7 -304.4 382.1 -228.6 387.4 -186.6C392.8 -144.5 452 -136.3 485.5 -110.8C519 -85.4 526.7 -42.7 534.4 0L0 0Z" fill="#df334f"></path></g></svg>