<svg id="visual" viewBox="0 0 900 675" width="900" height="675" xmlns="http://www.w3.org/2000/svg" xmlns:xlink="http://www.w3.org/1999/xlink" version="1.1"><rect x="0" y="0" width="900" height="675" fill="#001d4f"></rect><defs><linearGradient id="grad1_0" x1="25%" y1="0%" x2="100%" y2="100%"><stop offset="23.333333333333336%" stop-color="#001d4f" stop-opacity="1"></stop><stop offset="76.66666666666666%" stop-color="#001d4f" stop-opacity="1"></stop></linearGradient></defs><defs><linearGradient id="grad2_0" x1="0%" y1="0%" x2="75%" y2="100%"><stop offset="23.333333333333336%" stop-color="#001d4f" stop-opacity="1"></stop><stop offset="76.66666666666666%" stop-color="#001d4f" stop-opacity="1"></stop></linearGradient></defs><g transform="translate(900, 0)"><path d="M0 534.4C-42.7 510.9 -85.4 487.4 -125.8 469.4C-166.2 451.5 -204.2 439 -245.5 425.2C-286.8 411.4 -331.3 396.2 -370.5 370.5C-409.8 344.9 -443.7 308.8 -462.8 267.2C-481.9 225.5 -486.1 178.2 -495.5 132.8C-505 87.3 -519.7 43.7 -534.4 0L0 0Z" fill="#df334f"></path></g><g transform="translate(0, 675)"><path d="M0 -534.4C45.1 -523 90.1 -511.6 133 -496.5C175.9 -481.4 216.7 -462.5 254 -439.9C291.3 -417.3 325.2 -391 363.5 -363.5C401.7 -335.9 444.2 -307.1 462.8 -267.2C481.4 -227.2 476 -176.1 483.9 -129.7C491.9 -83.3 513.1 -41.6 534.4 0L0 0Z" fill="#df334f"></path></g></svg>