<svg id="visual" viewBox="0 0 960 540" width="960" height="540" xmlns="http://www.w3.org/2000/svg" xmlns:xlink="http://www.w3.org/1999/xlink" version="1.1"><rect x="0" y="0" width="960" height="540" fill="#001d4f"></rect><defs><linearGradient id="grad1_0" x1="43.8%" y1="0%" x2="100%" y2="100%"><stop offset="14.444444444444446%" stop-color="#001d4f" stop-opacity="1"></stop><stop offset="85.55555555555554%" stop-color="#001d4f" stop-opacity="1"></stop></linearGradient></defs><defs><linearGradient id="grad2_0" x1="0%" y1="0%" x2="56.3%" y2="100%"><stop offset="14.444444444444446%" stop-color="#001d4f" stop-opacity="1"></stop><stop offset="85.55555555555554%" stop-color="#001d4f" stop-opacity="1"></stop></linearGradient></defs><g transform="translate(960, 0)"><path d="M0 486C-36.6 476.8 -73.2 467.7 -102.1 447.5C-131 427.3 -152.2 396 -186.1 386.5C-220.1 377 -266.9 389.2 -302.4 379.2C-337.9 369.2 -362.3 337.1 -380 303C-397.7 268.9 -408.8 232.9 -409.9 197.4C-411.1 162 -402.3 127.1 -413.4 94.3C-424.4 61.5 -455.2 30.8 -486 0L0 0Z" fill="#df334f"></path></g><g transform="translate(0, 540)"><path d="M0 -486C30.1 -452.3 60.1 -418.6 93.2 -408.5C126.4 -398.4 162.6 -411.9 196.5 -408.1C230.5 -404.4 262.2 -383.4 286.8 -359.6C311.4 -335.9 329 -309.3 358.9 -286.2C388.8 -263.1 431 -243.4 437.9 -210.9C444.7 -178.3 416.1 -132.8 418.2 -95.5C420.4 -58.2 453.2 -29.1 486 0L0 0Z" fill="#df334f"></path></g></svg>