<svg id="visual" viewBox="0 0 1000 768" width="1000" height="768" xmlns="http://www.w3.org/2000/svg" xmlns:xlink="http://www.w3.org/1999/xlink" version="1.1"><rect x="0" y="0" width="1000" height="768" fill="#001122"></rect><defs><linearGradient id="grad1_0" x1="23.2%" y1="0%" x2="100%" y2="100%"><stop offset="23.958333333333336%" stop-color="#001122" stop-opacity="1"></stop><stop offset="76.04166666666666%" stop-color="#001122" stop-opacity="1"></stop></linearGradient></defs><defs><linearGradient id="grad2_0" x1="0%" y1="0%" x2="76.8%" y2="100%"><stop offset="23.958333333333336%" stop-color="#001122" stop-opacity="1"></stop><stop offset="76.04166666666666%" stop-color="#001122" stop-opacity="1"></stop></linearGradient></defs><g transform="translate(1000, 0)"><path d="M0 441.3C-78.7 426 -157.4 410.7 -212.5 368.1C-267.6 325.4 -299.2 255.4 -328.2 189.5C-357.2 123.6 -383.6 61.8 -410 0L0 0Z" fill="#E63946"></path></g><g transform="translate(0, 768)"><path d="M0 -441.3C64.2 -405.7 128.3 -370.2 193 -334.3C257.7 -298.4 322.9 -262.3 357.7 -206.5C392.4 -150.7 396.7 -75.4 401 0L0 0Z" fill="#E63946"></path></g></svg>