<svg id="visual" viewBox="0 0 900 600" width="900" height="600" xmlns="http://www.w3.org/2000/svg" xmlns:xlink="http://www.w3.org/1999/xlink" version="1.1"><g stroke-width="1" stroke-linejoin="bevel"><path d="M407 304L368.7 267L368.7 329Z" fill="#001347" stroke="#001347"></path><path d="M368.7 267L364.4 331L368.7 329Z" fill="#132981" stroke="#132981"></path><path d="M368.7 267L347.4 337L364.4 331Z" fill="#132981" stroke="#132981"></path><path d="M347.4 337L370.7 352L364.4 331Z" fill="#011b5d" stroke="#011b5d"></path><path d="M364.4 331L370.7 352L368.7 329Z" fill="#1a2d8d" stroke="#1a2d8d"></path><path d="M368.7 329L370.7 352L407 304Z" fill="#22329a" stroke="#22329a"></path><path d="M452 206L355.4 247L368.7 267Z" fill="#000c3c" stroke="#000c3c"></path><path d="M368.7 267L288.1 322L347.4 337Z" fill="#001347" stroke="#001347"></path><path d="M355.4 247L288.1 322L368.7 267Z" fill="#132981" stroke="#132981"></path><path d="M347.4 337L319.4 410L370.7 352Z" fill="#000c3c" stroke="#000c3c"></path><path d="M319.4 410L407 384L370.7 352Z" fill="#0d2475" stroke="#0d2475"></path><path d="M370.7 352L407 384L407 304Z" fill="#132981" stroke="#132981"></path><path d="M407 384L471.3 344L407 304Z" fill="#0d2475" stroke="#0d2475"></path><path d="M407 304L452 206L368.7 267Z" fill="#062069" stroke="#062069"></path><path d="M355.4 247L266.1 271L288.1 322Z" fill="#1a2d8d" stroke="#1a2d8d"></path><path d="M355.4 247L291.1 216L266.1 271Z" fill="#000331" stroke="#000331"></path><path d="M464 211L452 206L407 304Z" fill="#132981" stroke="#132981"></path><path d="M307.4 150L292.4 165L291.1 216Z" fill="#000c3c" stroke="#000c3c"></path><path d="M532.6 286L464 211L407 304Z" fill="#001347" stroke="#001347"></path><path d="M230.1 403L319.4 410L288.1 322Z" fill="#011b5d" stroke="#011b5d"></path><path d="M288.1 322L319.4 410L347.4 337Z" fill="#2936a6" stroke="#2936a6"></path><path d="M421 436L471 403L407 384Z" fill="#1a2d8d" stroke="#1a2d8d"></path><path d="M407 384L471 403L471.3 344Z" fill="#000331" stroke="#000331"></path><path d="M400.7 450L421 436L407 384Z" fill="#1a2d8d" stroke="#1a2d8d"></path><path d="M214.9 313L232.1 331L266.1 271Z" fill="#062069" stroke="#062069"></path><path d="M266.1 271L232.1 331L288.1 322Z" fill="#0d2475" stroke="#0d2475"></path><path d="M319.4 410L400.7 450L407 384Z" fill="#011b5d" stroke="#011b5d"></path><path d="M421 436L494.3 436L471 403Z" fill="#001752" stroke="#001752"></path><path d="M307.4 150L291.1 216L355.4 247Z" fill="#2936a6" stroke="#2936a6"></path><path d="M191.9 266L214.9 313L266.1 271Z" fill="#001347" stroke="#001347"></path><path d="M556.3 403L532.6 286L471.3 344Z" fill="#062069" stroke="#062069"></path><path d="M471.3 344L532.6 286L407 304Z" fill="#132981" stroke="#132981"></path><path d="M464 211L467.3 166L452 206Z" fill="#062069" stroke="#062069"></path><path d="M361.7 128L307.4 150L355.4 247Z" fill="#0d2475" stroke="#0d2475"></path><path d="M547.3 196L467.3 166L464 211Z" fill="#1a2d8d" stroke="#1a2d8d"></path><path d="M191.9 266L266.1 271L291.1 216Z" fill="#001752" stroke="#001752"></path><path d="M361.7 128L355.4 247L452 206Z" fill="#001347" stroke="#001347"></path><path d="M246.1 461L337.7 464L319.4 410Z" fill="#2936a6" stroke="#2936a6"></path><path d="M319.4 410L337.7 464L400.7 450Z" fill="#000c3c" stroke="#000c3c"></path><path d="M230.1 403L288.1 322L232.1 331Z" fill="#132981" stroke="#132981"></path><path d="M429.7 133L361.7 128L452 206Z" fill="#0d2475" stroke="#0d2475"></path><path d="M467.3 166L429.7 133L452 206Z" fill="#001347" stroke="#001347"></path><path d="M170.6 318L230.1 403L232.1 331Z" fill="#011b5d" stroke="#011b5d"></path><path d="M172.9 451L229.9 406L139.6 414Z" fill="#2936a6" stroke="#2936a6"></path><path d="M230.1 403L229.9 406L319.4 410Z" fill="#000c3c" stroke="#000c3c"></path><path d="M483 517L494.3 436L421 436Z" fill="#011b5d" stroke="#011b5d"></path><path d="M471 403L556.3 403L471.3 344Z" fill="#001752" stroke="#001752"></path><path d="M483 517L421 436L400.7 450Z" fill="#000c3c" stroke="#000c3c"></path><path d="M212.9 159L191.9 266L291.1 216Z" fill="#000c3c" stroke="#000c3c"></path><path d="M214.9 313L170.6 318L232.1 331Z" fill="#1a2d8d" stroke="#1a2d8d"></path><path d="M532.6 286L547.3 221L464 211Z" fill="#132981" stroke="#132981"></path><path d="M467.3 166L466 93L429.7 133Z" fill="#2936a6" stroke="#2936a6"></path><path d="M547.3 221L547.3 196L464 211Z" fill="#0d2475" stroke="#0d2475"></path><path d="M165.9 307L170.6 318L214.9 313Z" fill="#001752" stroke="#001752"></path><path d="M172.9 451L246.1 461L229.9 406Z" fill="#000331" stroke="#000331"></path><path d="M229.9 406L246.1 461L319.4 410Z" fill="#1a2d8d" stroke="#1a2d8d"></path><path d="M494.3 436L556.3 403L471 403Z" fill="#000331" stroke="#000331"></path><path d="M532.6 286L608.6 289L547.3 221Z" fill="#132981" stroke="#132981"></path><path d="M578.6 158L557.6 156L547.3 196Z" fill="#000331" stroke="#000331"></path><path d="M191.9 266L165.9 307L214.9 313Z" fill="#000c3c" stroke="#000c3c"></path><path d="M370.7 82L364.4 87L361.7 128Z" fill="#2936a6" stroke="#2936a6"></path><path d="M361.7 128L297.1 80L307.4 150Z" fill="#132981" stroke="#132981"></path><path d="M211.9 150L212.9 159L292.4 165Z" fill="#011b5d" stroke="#011b5d"></path><path d="M292.4 165L212.9 159L291.1 216Z" fill="#0d2475" stroke="#0d2475"></path><path d="M370.7 82L361.7 128L429.7 133Z" fill="#062069" stroke="#062069"></path><path d="M211.9 150L292.4 165L297.1 80Z" fill="#001752" stroke="#001752"></path><path d="M191.9 266L137.6 237L165.9 307Z" fill="#22329a" stroke="#22329a"></path><path d="M339.4 517L357.4 512L337.7 464Z" fill="#062069" stroke="#062069"></path><path d="M337.7 464L357.4 512L400.7 450Z" fill="#001347" stroke="#001347"></path><path d="M494.3 436L536.3 449L556.3 403Z" fill="#001347" stroke="#001347"></path><path d="M466 93L370.7 82L429.7 133Z" fill="#132981" stroke="#132981"></path><path d="M297.1 80L292.4 165L307.4 150Z" fill="#000331" stroke="#000331"></path><path d="M483 517L536.3 449L494.3 436Z" fill="#062069" stroke="#062069"></path><path d="M297.1 80L361.7 128L364.4 87Z" fill="#1a2d8d" stroke="#1a2d8d"></path><path d="M212.9 159L154.6 198L191.9 266Z" fill="#001347" stroke="#001347"></path><path d="M267.1 521L339.4 517L337.7 464Z" fill="#001752" stroke="#001752"></path><path d="M557.6 156L466 93L467.3 166Z" fill="#062069" stroke="#062069"></path><path d="M578.6 158L646.9 204L597.9 154Z" fill="#001347" stroke="#001347"></path><path d="M547.3 196L557.6 156L467.3 166Z" fill="#011b5d" stroke="#011b5d"></path><path d="M315.4 0L297.1 80L364.4 87Z" fill="#011b5d" stroke="#011b5d"></path><path d="M624.6 367L532.6 286L556.3 403Z" fill="#000331" stroke="#000331"></path><path d="M624.6 367L608.6 289L532.6 286Z" fill="#000331" stroke="#000331"></path><path d="M366.4 600L404.7 533L357.4 512Z" fill="#062069" stroke="#062069"></path><path d="M357.4 512L404.7 533L400.7 450Z" fill="#001752" stroke="#001752"></path><path d="M211.9 150L154.6 198L212.9 159Z" fill="#0d2475" stroke="#0d2475"></path><path d="M404.7 533L483 517L400.7 450Z" fill="#001347" stroke="#001347"></path><path d="M154.6 198L137.6 237L191.9 266Z" fill="#062069" stroke="#062069"></path><path d="M578.6 158L547.3 196L646.9 204Z" fill="#001752" stroke="#001752"></path><path d="M557.6 156L502.3 55L466 93Z" fill="#0d2475" stroke="#0d2475"></path><path d="M246.1 461L267.1 521L337.7 464Z" fill="#000c3c" stroke="#000c3c"></path><path d="M339.4 517L366.4 600L357.4 512Z" fill="#000331" stroke="#000331"></path><path d="M162.6 470L267.1 521L246.1 461Z" fill="#2936a6" stroke="#2936a6"></path><path d="M165.9 307L123.6 318L170.6 318Z" fill="#22329a" stroke="#22329a"></path><path d="M139.6 414L229.9 406L230.1 403Z" fill="#132981" stroke="#132981"></path><path d="M137.6 237L123.6 318L165.9 307Z" fill="#0d2475" stroke="#0d2475"></path><path d="M139.6 414L230.1 403L170.6 318Z" fill="#011b5d" stroke="#011b5d"></path><path d="M611.6 452L556.3 403L536.3 449Z" fill="#132981" stroke="#132981"></path><path d="M611.6 452L624.6 367L556.3 403Z" fill="#0d2475" stroke="#0d2475"></path><path d="M123.6 318L139.6 414L170.6 318Z" fill="#011b5d" stroke="#011b5d"></path><path d="M483 517L544.6 500L536.3 449Z" fill="#132981" stroke="#132981"></path><path d="M646.9 204L547.3 196L547.3 221Z" fill="#0d2475" stroke="#0d2475"></path><path d="M578.6 158L605.6 83L557.6 156Z" fill="#001347" stroke="#001347"></path><path d="M646.9 204L547.3 221L608.6 289Z" fill="#062069" stroke="#062069"></path><path d="M466 93L419 35L370.7 82Z" fill="#2936a6" stroke="#2936a6"></path><path d="M370.7 82L315.4 0L364.4 87Z" fill="#000331" stroke="#000331"></path><path d="M502.3 55L419 35L466 93Z" fill="#000331" stroke="#000331"></path><path d="M59.3 278L108.3 326L123.6 318Z" fill="#001752" stroke="#001752"></path><path d="M123.6 318L108.3 326L139.6 414Z" fill="#1a2d8d" stroke="#1a2d8d"></path><path d="M139.6 414L162.6 470L172.9 451Z" fill="#062069" stroke="#062069"></path><path d="M172.9 451L162.6 470L246.1 461Z" fill="#22329a" stroke="#22329a"></path><path d="M605.6 83L502.3 55L557.6 156Z" fill="#011b5d" stroke="#011b5d"></path><path d="M584.6 493L611.6 452L536.3 449Z" fill="#000c3c" stroke="#000c3c"></path><path d="M635.9 440L652.9 363L624.6 367Z" fill="#001752" stroke="#001752"></path><path d="M624.6 367L652.9 363L608.6 289Z" fill="#1a2d8d" stroke="#1a2d8d"></path><path d="M626.9 558L584.6 493L544.6 500Z" fill="#000331" stroke="#000331"></path><path d="M544.6 500L584.6 493L536.3 449Z" fill="#011b5d" stroke="#011b5d"></path><path d="M671.1 222L646.9 204L608.6 289Z" fill="#000c3c" stroke="#000c3c"></path><path d="M597.9 154L605.6 83L578.6 158Z" fill="#000c3c" stroke="#000c3c"></path><path d="M211.9 150L103.6 142L154.6 198Z" fill="#001752" stroke="#001752"></path><path d="M297.1 80L220.9 51L211.9 150Z" fill="#062069" stroke="#062069"></path><path d="M234.1 29L220.9 51L297.1 80Z" fill="#000c3c" stroke="#000c3c"></path><path d="M611.6 452L635.9 440L624.6 367Z" fill="#011b5d" stroke="#011b5d"></path><path d="M688.9 450L635.9 440L689.1 457Z" fill="#011b5d" stroke="#011b5d"></path><path d="M431 0L362.7 0L419 35Z" fill="#001752" stroke="#001752"></path><path d="M419 35L362.7 0L370.7 82Z" fill="#062069" stroke="#062069"></path><path d="M483 517L511.3 566L544.6 500Z" fill="#001752" stroke="#001752"></path><path d="M449 600L511.3 566L483 517Z" fill="#062069" stroke="#062069"></path><path d="M449 600L483 517L404.7 533Z" fill="#0d2475" stroke="#0d2475"></path><path d="M246.1 600L366.4 600L267.1 521Z" fill="#0d2475" stroke="#0d2475"></path><path d="M267.1 521L366.4 600L339.4 517Z" fill="#001347" stroke="#001347"></path><path d="M502.3 55L431 0L419 35Z" fill="#000c3c" stroke="#000c3c"></path><path d="M366.4 600L401.7 600L404.7 533Z" fill="#001347" stroke="#001347"></path><path d="M315.4 0L234.1 29L297.1 80Z" fill="#001752" stroke="#001752"></path><path d="M362.7 0L315.4 0L370.7 82Z" fill="#001347" stroke="#001347"></path><path d="M679.9 344L671.1 222L608.6 289Z" fill="#132981" stroke="#132981"></path><path d="M646.9 204L647.9 159L597.9 154Z" fill="#0d2475" stroke="#0d2475"></path><path d="M139.6 414L103.3 436L162.6 470Z" fill="#22329a" stroke="#22329a"></path><path d="M162.6 470L153.9 531L267.1 521Z" fill="#000331" stroke="#000331"></path><path d="M108.3 326L103.3 436L139.6 414Z" fill="#2936a6" stroke="#2936a6"></path><path d="M671.1 222L647.9 159L646.9 204Z" fill="#22329a" stroke="#22329a"></path><path d="M502.3 55L517.3 0L431 0Z" fill="#000c3c" stroke="#000c3c"></path><path d="M679.1 420L679.9 344L652.9 363Z" fill="#062069" stroke="#062069"></path><path d="M652.9 363L679.9 344L608.6 289Z" fill="#000331" stroke="#000331"></path><path d="M401.7 600L449 600L404.7 533Z" fill="#22329a" stroke="#22329a"></path><path d="M115.6 103L211.9 150L220.9 51Z" fill="#001752" stroke="#001752"></path><path d="M115.6 103L103.6 142L211.9 150Z" fill="#22329a" stroke="#22329a"></path><path d="M154.6 198L103.6 142L137.6 237Z" fill="#011b5d" stroke="#011b5d"></path><path d="M137.6 237L59.3 278L123.6 318Z" fill="#000c3c" stroke="#000c3c"></path><path d="M0 379L26.3 435L103.3 436Z" fill="#1a2d8d" stroke="#1a2d8d"></path><path d="M617.9 94L605.6 83L597.9 154Z" fill="#132981" stroke="#132981"></path><path d="M647.9 159L617.9 94L597.9 154Z" fill="#1a2d8d" stroke="#1a2d8d"></path><path d="M54.3 232L59.3 278L137.6 237Z" fill="#001752" stroke="#001752"></path><path d="M105.3 508L153.9 531L162.6 470Z" fill="#001347" stroke="#001347"></path><path d="M145.6 0L115.6 103L220.9 51Z" fill="#132981" stroke="#132981"></path><path d="M103.6 142L54.3 232L137.6 237Z" fill="#062069" stroke="#062069"></path><path d="M688.9 450L679.1 420L635.9 440Z" fill="#22329a" stroke="#22329a"></path><path d="M635.9 440L679.1 420L652.9 363Z" fill="#132981" stroke="#132981"></path><path d="M635.9 440L611.6 452L689.1 457Z" fill="#001347" stroke="#001347"></path><path d="M49.3 163L54.3 232L103.6 142Z" fill="#0d2475" stroke="#0d2475"></path><path d="M200.9 600L246.1 600L267.1 521Z" fill="#001347" stroke="#001347"></path><path d="M449 600L507.3 600L511.3 566Z" fill="#000c3c" stroke="#000c3c"></path><path d="M511.3 566L557.6 600L544.6 500Z" fill="#1a2d8d" stroke="#1a2d8d"></path><path d="M596.9 0L502.3 55L605.6 83Z" fill="#22329a" stroke="#22329a"></path><path d="M596.9 0L517.3 0L502.3 55Z" fill="#1a2d8d" stroke="#1a2d8d"></path><path d="M315.4 0L216.1 0L234.1 29Z" fill="#062069" stroke="#062069"></path><path d="M234.1 29L214.9 0L220.9 51Z" fill="#132981" stroke="#132981"></path><path d="M216.1 0L214.9 0L234.1 29Z" fill="#1a2d8d" stroke="#1a2d8d"></path><path d="M103.3 436L105.3 508L162.6 470Z" fill="#062069" stroke="#062069"></path><path d="M153.9 531L200.9 600L267.1 521Z" fill="#22329a" stroke="#22329a"></path><path d="M26.3 435L105.3 508L103.3 436Z" fill="#2936a6" stroke="#2936a6"></path><path d="M689.1 457L611.6 452L626.9 558Z" fill="#001347" stroke="#001347"></path><path d="M679.1 420L736.1 326L679.9 344Z" fill="#22329a" stroke="#22329a"></path><path d="M751.4 267L727.4 219L671.1 222Z" fill="#132981" stroke="#132981"></path><path d="M84.6 600L200.9 600L153.9 531Z" fill="#000331" stroke="#000331"></path><path d="M626.9 558L611.6 452L584.6 493Z" fill="#0d2475" stroke="#0d2475"></path><path d="M507.3 600L557.6 600L511.3 566Z" fill="#132981" stroke="#132981"></path><path d="M29.3 159L49.3 163L0 90Z" fill="#2936a6" stroke="#2936a6"></path><path d="M115.6 103L49.3 163L103.6 142Z" fill="#062069" stroke="#062069"></path><path d="M647.9 159L686.1 114L617.9 94Z" fill="#062069" stroke="#062069"></path><path d="M671.1 222L726.1 168L647.9 159Z" fill="#2936a6" stroke="#2936a6"></path><path d="M751.4 267L671.1 222L679.9 344Z" fill="#062069" stroke="#062069"></path><path d="M736.1 326L679.1 420L769.4 342Z" fill="#000331" stroke="#000331"></path><path d="M726.1 168L686.1 114L647.9 159Z" fill="#000c3c" stroke="#000c3c"></path><path d="M608.6 0L596.9 0L605.6 83Z" fill="#2936a6" stroke="#2936a6"></path><path d="M557.6 600L626.9 558L544.6 500Z" fill="#062069" stroke="#062069"></path><path d="M745.1 318L736.1 326L769.4 342Z" fill="#062069" stroke="#062069"></path><path d="M723.4 466L679.1 420L688.9 450Z" fill="#1a2d8d" stroke="#1a2d8d"></path><path d="M736.1 326L751.4 267L679.9 344Z" fill="#2936a6" stroke="#2936a6"></path><path d="M686.1 87L605.6 83L617.9 94Z" fill="#001752" stroke="#001752"></path><path d="M0 90L49.3 163L115.6 103Z" fill="#0d2475" stroke="#0d2475"></path><path d="M0 182L0 221L54.3 232Z" fill="#000331" stroke="#000331"></path><path d="M0 221L0 335L59.3 278Z" fill="#132981" stroke="#132981"></path><path d="M0 379L103.3 436L108.3 326Z" fill="#2936a6" stroke="#2936a6"></path><path d="M727.4 219L726.1 168L671.1 222Z" fill="#0d2475" stroke="#0d2475"></path><path d="M761.4 208L726.1 168L727.4 219Z" fill="#001347" stroke="#001347"></path><path d="M738.4 94L686.1 87L686.1 114Z" fill="#011b5d" stroke="#011b5d"></path><path d="M686.1 114L686.1 87L617.9 94Z" fill="#1a2d8d" stroke="#1a2d8d"></path><path d="M0 335L108.3 326L59.3 278Z" fill="#2936a6" stroke="#2936a6"></path><path d="M105.3 508L88.6 563L153.9 531Z" fill="#062069" stroke="#062069"></path><path d="M214.9 0L145.6 0L220.9 51Z" fill="#132981" stroke="#132981"></path><path d="M745.1 318L751.4 267L736.1 326Z" fill="#001752" stroke="#001752"></path><path d="M0 221L59.3 278L54.3 232Z" fill="#000331" stroke="#000331"></path><path d="M0 335L0 337L108.3 326Z" fill="#0d2475" stroke="#0d2475"></path><path d="M686.1 87L608.6 0L605.6 83Z" fill="#062069" stroke="#062069"></path><path d="M145.6 0L95.3 44L115.6 103Z" fill="#1a2d8d" stroke="#1a2d8d"></path><path d="M0 182L54.3 232L49.3 163Z" fill="#2936a6" stroke="#2936a6"></path><path d="M0 337L0 379L108.3 326Z" fill="#1a2d8d" stroke="#1a2d8d"></path><path d="M716.1 539L723.4 466L689.1 457Z" fill="#001752" stroke="#001752"></path><path d="M689.1 457L723.4 466L688.9 450Z" fill="#011b5d" stroke="#011b5d"></path><path d="M0 508L88.6 563L105.3 508Z" fill="#0d2475" stroke="#0d2475"></path><path d="M0 157L0 182L29.3 159Z" fill="#1a2d8d" stroke="#1a2d8d"></path><path d="M29.3 159L0 182L49.3 163Z" fill="#22329a" stroke="#22329a"></path><path d="M726.1 168L738.4 94L686.1 114Z" fill="#062069" stroke="#062069"></path><path d="M751.4 267L761.4 208L727.4 219Z" fill="#011b5d" stroke="#011b5d"></path><path d="M812.7 286L761.4 208L751.4 267Z" fill="#011b5d" stroke="#011b5d"></path><path d="M812.7 286L751.4 267L745.1 318Z" fill="#1a2d8d" stroke="#1a2d8d"></path><path d="M723.4 466L769.4 342L679.1 420Z" fill="#2936a6" stroke="#2936a6"></path><path d="M0 90L0 157L29.3 159Z" fill="#001752" stroke="#001752"></path><path d="M806.7 157L738.4 94L726.1 168Z" fill="#000c3c" stroke="#000c3c"></path><path d="M686.1 87L700.1 0L608.6 0Z" fill="#001752" stroke="#001752"></path><path d="M626.9 558L716.1 539L689.1 457Z" fill="#001347" stroke="#001347"></path><path d="M723.4 466L802.7 447L769.4 342Z" fill="#062069" stroke="#062069"></path><path d="M688.9 600L716.1 539L626.9 558Z" fill="#0d2475" stroke="#0d2475"></path><path d="M80.3 600L84.6 600L88.6 563Z" fill="#001347" stroke="#001347"></path><path d="M88.6 563L84.6 600L153.9 531Z" fill="#2936a6" stroke="#2936a6"></path><path d="M80.3 600L88.6 563L0 548Z" fill="#1a2d8d" stroke="#1a2d8d"></path><path d="M0 508L105.3 508L26.3 435Z" fill="#011b5d" stroke="#011b5d"></path><path d="M716.1 539L738.4 516L723.4 466Z" fill="#000c3c" stroke="#000c3c"></path><path d="M145.6 0L73.3 0L95.3 44Z" fill="#011b5d" stroke="#011b5d"></path><path d="M95.3 44L0 90L115.6 103Z" fill="#1a2d8d" stroke="#1a2d8d"></path><path d="M73.3 0L0 90L95.3 44Z" fill="#001347" stroke="#001347"></path><path d="M0 379L0 508L26.3 435Z" fill="#011b5d" stroke="#011b5d"></path><path d="M557.6 600L688.9 600L626.9 558Z" fill="#011b5d" stroke="#011b5d"></path><path d="M716.1 539L753.4 555L738.4 516Z" fill="#001752" stroke="#001752"></path><path d="M833.7 371L812.7 286L769.4 342Z" fill="#001347" stroke="#001347"></path><path d="M769.4 342L812.7 286L745.1 318Z" fill="#001347" stroke="#001347"></path><path d="M761.4 208L806.7 157L726.1 168Z" fill="#132981" stroke="#132981"></path><path d="M816.4 0L736.4 48L738.4 94Z" fill="#001752" stroke="#001752"></path><path d="M738.4 94L736.4 48L686.1 87Z" fill="#011b5d" stroke="#011b5d"></path><path d="M736.4 48L700.1 0L686.1 87Z" fill="#062069" stroke="#062069"></path><path d="M0 508L0 548L88.6 563Z" fill="#1a2d8d" stroke="#1a2d8d"></path><path d="M793.7 560L802.7 447L738.4 516Z" fill="#132981" stroke="#132981"></path><path d="M738.4 516L802.7 447L723.4 466Z" fill="#132981" stroke="#132981"></path><path d="M869.7 210L806.7 157L761.4 208Z" fill="#2936a6" stroke="#2936a6"></path><path d="M688.9 600L714.1 600L716.1 539Z" fill="#22329a" stroke="#22329a"></path><path d="M714.1 600L753.4 555L716.1 539Z" fill="#000331" stroke="#000331"></path><path d="M802.7 447L833.7 371L769.4 342Z" fill="#1a2d8d" stroke="#1a2d8d"></path><path d="M812.7 286L869.7 210L761.4 208Z" fill="#001752" stroke="#001752"></path><path d="M73.3 0L0 0L0 90Z" fill="#001347" stroke="#001347"></path><path d="M0 548L0 600L80.3 600Z" fill="#000c3c" stroke="#000c3c"></path><path d="M753.4 555L793.7 560L738.4 516Z" fill="#2936a6" stroke="#2936a6"></path><path d="M802.7 447L876.7 461L833.7 371Z" fill="#001347" stroke="#001347"></path><path d="M787.7 600L793.7 560L753.4 555Z" fill="#062069" stroke="#062069"></path><path d="M877.7 282L812.7 286L833.7 371Z" fill="#1a2d8d" stroke="#1a2d8d"></path><path d="M877.7 282L869.7 210L812.7 286Z" fill="#000c3c" stroke="#000c3c"></path><path d="M806.7 157L864.7 107L738.4 94Z" fill="#001347" stroke="#001347"></path><path d="M736.4 48L816.4 0L700.1 0Z" fill="#011b5d" stroke="#011b5d"></path><path d="M900 268L877.7 282L900 362Z" fill="#22329a" stroke="#22329a"></path><path d="M714.1 600L787.7 600L753.4 555Z" fill="#22329a" stroke="#22329a"></path><path d="M793.7 560L876.7 461L802.7 447Z" fill="#062069" stroke="#062069"></path><path d="M787.7 600L800.4 600L793.7 560Z" fill="#062069" stroke="#062069"></path><path d="M900 151L806.7 157L869.7 210Z" fill="#011b5d" stroke="#011b5d"></path><path d="M900 151L864.7 107L806.7 157Z" fill="#001752" stroke="#001752"></path><path d="M900 362L877.7 282L833.7 371Z" fill="#011b5d" stroke="#011b5d"></path><path d="M877.7 282L900 268L869.7 210Z" fill="#062069" stroke="#062069"></path><path d="M900 515L876.7 461L793.7 560Z" fill="#132981" stroke="#132981"></path><path d="M900 447L900 362L833.7 371Z" fill="#132981" stroke="#132981"></path><path d="M900 268L900 218L869.7 210Z" fill="#000c3c" stroke="#000c3c"></path><path d="M864.7 107L816.4 0L738.4 94Z" fill="#0d2475" stroke="#0d2475"></path><path d="M900 218L900 206L869.7 210Z" fill="#001347" stroke="#001347"></path><path d="M900 206L900 151L869.7 210Z" fill="#22329a" stroke="#22329a"></path><path d="M864.7 107L852.7 0L816.4 0Z" fill="#1a2d8d" stroke="#1a2d8d"></path><path d="M900 451L900 447L876.7 461Z" fill="#1a2d8d" stroke="#1a2d8d"></path><path d="M876.7 461L900 447L833.7 371Z" fill="#000c3c" stroke="#000c3c"></path><path d="M900 515L900 451L876.7 461Z" fill="#001347" stroke="#001347"></path><path d="M900 55L852.7 0L864.7 107Z" fill="#000331" stroke="#000331"></path><path d="M900 600L900 515L793.7 560Z" fill="#1a2d8d" stroke="#1a2d8d"></path><path d="M900 151L900 55L864.7 107Z" fill="#2936a6" stroke="#2936a6"></path><path d="M900 55L900 0L852.7 0Z" fill="#22329a" stroke="#22329a"></path><path d="M800.4 600L900 600L793.7 560Z" fill="#011b5d" stroke="#011b5d"></path></g></svg>