<svg id="visual" viewBox="0 0 960 540" width="960" height="540" xmlns="http://www.w3.org/2000/svg" xmlns:xlink="http://www.w3.org/1999/xlink" version="1.1"><path d="M0 123L22.8 134.5C45.7 146 91.3 169 137 164.2C182.7 159.3 228.3 126.7 274 126C319.7 125.3 365.3 156.7 411.2 157.2C457 157.7 503 127.3 548.8 116.7C594.7 106 640.3 115 686 129.5C731.7 144 777.3 164 823 155.7C868.7 147.3 914.3 110.7 937.2 92.3L960 74L960 0L937.2 0C914.3 0 868.7 0 823 0C777.3 0 731.7 0 686 0C640.3 0 594.7 0 548.8 0C503 0 457 0 411.2 0C365.3 0 319.7 0 274 0C228.3 0 182.7 0 137 0C91.3 0 45.7 0 22.8 0L0 0Z" fill="#99173c"></path><path d="M0 55L22.8 57.2C45.7 59.3 91.3 63.7 137 73.7C182.7 83.7 228.3 99.3 274 97.2C319.7 95 365.3 75 411.2 78.2C457 81.3 503 107.7 548.8 112.3C594.7 117 640.3 100 686 89C731.7 78 777.3 73 823 82.8C868.7 92.7 914.3 117.3 937.2 129.7L960 142L960 0L937.2 0C914.3 0 868.7 0 823 0C777.3 0 731.7 0 686 0C640.3 0 594.7 0 548.8 0C503 0 457 0 411.2 0C365.3 0 319.7 0 274 0C228.3 0 182.7 0 137 0C91.3 0 45.7 0 22.8 0L0 0Z" fill="#b31f4a"></path><path d="M0 93L22.8 86.5C45.7 80 91.3 67 137 60.8C182.7 54.7 228.3 55.3 274 59.2C319.7 63 365.3 70 411.2 76.2C457 82.3 503 87.7 548.8 80.7C594.7 73.7 640.3 54.3 686 45.5C731.7 36.7 777.3 38.3 823 46.3C868.7 54.3 914.3 68.7 937.2 75.8L960 83L960 0L937.2 0C914.3 0 868.7 0 823 0C777.3 0 731.7 0 686 0C640.3 0 594.7 0 548.8 0C503 0 457 0 411.2 0C365.3 0 319.7 0 274 0C228.3 0 182.7 0 137 0C91.3 0 45.7 0 22.8 0L0 0Z" fill="#ce2858"></path></svg>