<svg id="visual" viewBox="0 0 900 600" width="900" height="600" xmlns="http://www.w3.org/2000/svg" xmlns:xlink="http://www.w3.org/1999/xlink" version="1.1"><path d="M0 354L21.5 353.5C43 353 86 352 128.8 364.2C171.7 376.3 214.3 401.7 257.2 405.3C300 409 343 391 385.8 381.8C428.7 372.7 471.3 372.3 514.2 379.8C557 387.3 600 402.7 642.8 412.8C685.7 423 728.3 428 771.2 420.5C814 413 857 393 878.5 383L900 373L900 601L878.5 601C857 601 814 601 771.2 601C728.3 601 685.7 601 642.8 601C600 601 557 601 514.2 601C471.3 601 428.7 601 385.8 601C343 601 300 601 257.2 601C214.3 601 171.7 601 128.8 601C86 601 43 601 21.5 601L0 601Z" fill="#26005c"></path><path d="M0 452L21.5 452C43 452 86 452 128.8 460.5C171.7 469 214.3 486 257.2 490.5C300 495 343 487 385.8 478.3C428.7 469.7 471.3 460.3 514.2 466C557 471.7 600 492.3 642.8 498.2C685.7 504 728.3 495 771.2 485C814 475 857 464 878.5 458.5L900 453L900 601L878.5 601C857 601 814 601 771.2 601C728.3 601 685.7 601 642.8 601C600 601 557 601 514.2 601C471.3 601 428.7 601 385.8 601C343 601 300 601 257.2 601C214.3 601 171.7 601 128.8 601C86 601 43 601 21.5 601L0 601Z" fill="#ce2858"></path></svg>