<svg id="visual" viewBox="0 0 540 960" width="540" height="960" xmlns="http://www.w3.org/2000/svg" xmlns:xlink="http://www.w3.org/1999/xlink" version="1.1"><g stroke-width="1" stroke-linejoin="bevel"><path d="M244 458L231 386L210 452Z" fill="#a12164" stroke="#a12164"></path><path d="M231 386L205 451L210 452Z" fill="#001133" stroke="#001133"></path><path d="M231 386L158 435L205 451Z" fill="#2a1c4c" stroke="#2a1c4c"></path><path d="M201 357L158 435L231 386Z" fill="#de3753" stroke="#de3753"></path><path d="M244 458L320 405L231 386Z" fill="#de3753" stroke="#de3753"></path><path d="M231 386L274 320L201 357Z" fill="#2a1c4c" stroke="#2a1c4c"></path><path d="M201 357L136 382L158 435Z" fill="#b72461" stroke="#b72461"></path><path d="M338 477L335 399L320 405Z" fill="#b72461" stroke="#b72461"></path><path d="M320 405L274 320L231 386Z" fill="#2a1c4c" stroke="#2a1c4c"></path><path d="M335 399L274 320L320 405Z" fill="#411f56" stroke="#411f56"></path><path d="M201 357L153 308L136 382Z" fill="#a12164" stroke="#a12164"></path><path d="M158 435L155 505L205 451Z" fill="#411f56" stroke="#411f56"></path><path d="M205 451L155 505L210 452Z" fill="#a12164" stroke="#a12164"></path><path d="M210 452L242 557L244 458Z" fill="#cc2b5b" stroke="#cc2b5b"></path><path d="M124 457L155 505L158 435Z" fill="#141740" stroke="#141740"></path><path d="M136 382L124 457L158 435Z" fill="#712163" stroke="#712163"></path><path d="M299 550L338 477L244 458Z" fill="#cc2b5b" stroke="#cc2b5b"></path><path d="M244 458L338 477L320 405Z" fill="#001133" stroke="#001133"></path><path d="M95 520L152 520L155 505Z" fill="#a12164" stroke="#a12164"></path><path d="M155 505L242 557L210 452Z" fill="#712163" stroke="#712163"></path><path d="M152 520L242 557L155 505Z" fill="#cc2b5b" stroke="#cc2b5b"></path><path d="M202 260L153 308L201 357Z" fill="#712163" stroke="#712163"></path><path d="M87 384L94 454L124 457Z" fill="#cc2b5b" stroke="#cc2b5b"></path><path d="M124 457L95 520L155 505Z" fill="#2a1c4c" stroke="#2a1c4c"></path><path d="M87 384L124 457L136 382Z" fill="#2a1c4c" stroke="#2a1c4c"></path><path d="M242 557L299 550L244 458Z" fill="#59215e" stroke="#59215e"></path><path d="M321 276L258 279L274 320Z" fill="#892165" stroke="#892165"></path><path d="M274 320L258 279L201 357Z" fill="#59215e" stroke="#59215e"></path><path d="M97 297L87 384L136 382Z" fill="#b72461" stroke="#b72461"></path><path d="M433 416L374 349L335 399Z" fill="#141740" stroke="#141740"></path><path d="M335 399L374 349L274 320Z" fill="#b72461" stroke="#b72461"></path><path d="M411 523L387 466L338 477Z" fill="#2a1c4c" stroke="#2a1c4c"></path><path d="M338 477L387 466L335 399Z" fill="#712163" stroke="#712163"></path><path d="M258 279L202 260L201 357Z" fill="#b72461" stroke="#b72461"></path><path d="M92 588L183 583L152 520Z" fill="#411f56" stroke="#411f56"></path><path d="M152 520L183 583L242 557Z" fill="#cc2b5b" stroke="#cc2b5b"></path><path d="M256 618L332 572L299 550Z" fill="#712163" stroke="#712163"></path><path d="M332 572L338 554L299 550Z" fill="#de3753" stroke="#de3753"></path><path d="M299 550L338 554L338 477Z" fill="#59215e" stroke="#59215e"></path><path d="M22 477L95 520L94 454Z" fill="#712163" stroke="#712163"></path><path d="M94 454L95 520L124 457Z" fill="#411f56" stroke="#411f56"></path><path d="M87 384L64 440L94 454Z" fill="#a12164" stroke="#a12164"></path><path d="M324 277L321 276L274 320Z" fill="#892165" stroke="#892165"></path><path d="M258 279L282 221L202 260Z" fill="#712163" stroke="#712163"></path><path d="M374 349L324 277L274 320Z" fill="#59215e" stroke="#59215e"></path><path d="M202 260L146 274L153 308Z" fill="#712163" stroke="#712163"></path><path d="M153 308L97 297L136 382Z" fill="#b72461" stroke="#b72461"></path><path d="M256 618L299 550L242 557Z" fill="#59215e" stroke="#59215e"></path><path d="M411 523L422 485L387 466Z" fill="#892165" stroke="#892165"></path><path d="M146 274L97 297L153 308Z" fill="#de3753" stroke="#de3753"></path><path d="M0 392L22 477L64 440Z" fill="#712163" stroke="#712163"></path><path d="M183 583L256 618L242 557Z" fill="#141740" stroke="#141740"></path><path d="M411 523L338 477L338 554Z" fill="#892165" stroke="#892165"></path><path d="M387 466L433 416L335 399Z" fill="#712163" stroke="#712163"></path><path d="M422 485L433 416L387 466Z" fill="#59215e" stroke="#59215e"></path><path d="M374 349L384 274L324 277Z" fill="#de3753" stroke="#de3753"></path><path d="M433 416L425 363L374 349Z" fill="#a12164" stroke="#a12164"></path><path d="M394 565L411 523L338 554Z" fill="#001133" stroke="#001133"></path><path d="M146 274L99 267L97 297Z" fill="#892165" stroke="#892165"></path><path d="M0 392L64 440L87 384Z" fill="#cc2b5b" stroke="#cc2b5b"></path><path d="M85 227L99 267L146 274Z" fill="#892165" stroke="#892165"></path><path d="M339 215L321 276L324 277Z" fill="#411f56" stroke="#411f56"></path><path d="M339 215L282 221L321 276Z" fill="#59215e" stroke="#59215e"></path><path d="M321 276L282 221L258 279Z" fill="#b72461" stroke="#b72461"></path><path d="M198 141L85 227L146 274Z" fill="#a12164" stroke="#a12164"></path><path d="M425 363L384 274L374 349Z" fill="#712163" stroke="#712163"></path><path d="M92 588L164 624L183 583Z" fill="#2a1c4c" stroke="#2a1c4c"></path><path d="M183 583L164 624L256 618Z" fill="#411f56" stroke="#411f56"></path><path d="M332 572L394 565L338 554Z" fill="#a12164" stroke="#a12164"></path><path d="M381 638L394 565L332 572Z" fill="#892165" stroke="#892165"></path><path d="M0 554L92 588L95 520Z" fill="#411f56" stroke="#411f56"></path><path d="M95 520L92 588L152 520Z" fill="#b72461" stroke="#b72461"></path><path d="M0 392L87 384L0 328Z" fill="#141740" stroke="#141740"></path><path d="M64 440L22 477L94 454Z" fill="#a12164" stroke="#a12164"></path><path d="M211 678L266 639L256 618Z" fill="#cc2b5b" stroke="#cc2b5b"></path><path d="M256 618L266 639L332 572Z" fill="#712163" stroke="#712163"></path><path d="M92 588L146 638L164 624Z" fill="#cc2b5b" stroke="#cc2b5b"></path><path d="M164 624L211 678L256 618Z" fill="#b72461" stroke="#b72461"></path><path d="M384 274L339 215L324 277Z" fill="#411f56" stroke="#411f56"></path><path d="M0 328L87 384L97 297Z" fill="#a12164" stroke="#a12164"></path><path d="M0 392L0 474L22 477Z" fill="#a12164" stroke="#a12164"></path><path d="M22 477L0 554L95 520Z" fill="#001133" stroke="#001133"></path><path d="M411 523L468 477L422 485Z" fill="#712163" stroke="#712163"></path><path d="M422 485L468 477L433 416Z" fill="#001133" stroke="#001133"></path><path d="M433 416L485 390L425 363Z" fill="#cc2b5b" stroke="#cc2b5b"></path><path d="M517 571L468 477L411 523Z" fill="#411f56" stroke="#411f56"></path><path d="M198 141L146 274L202 260Z" fill="#892165" stroke="#892165"></path><path d="M0 267L0 328L97 297Z" fill="#2a1c4c" stroke="#2a1c4c"></path><path d="M244 162L202 260L282 221Z" fill="#cc2b5b" stroke="#cc2b5b"></path><path d="M0 267L97 297L99 267Z" fill="#892165" stroke="#892165"></path><path d="M468 477L485 390L433 416Z" fill="#001133" stroke="#001133"></path><path d="M425 363L486 294L384 274Z" fill="#892165" stroke="#892165"></path><path d="M384 274L391 207L339 215Z" fill="#cc2b5b" stroke="#cc2b5b"></path><path d="M146 638L211 678L164 624Z" fill="#001133" stroke="#001133"></path><path d="M361 658L381 638L332 572Z" fill="#de3753" stroke="#de3753"></path><path d="M285 163L244 162L282 221Z" fill="#b72461" stroke="#b72461"></path><path d="M361 658L332 572L266 639Z" fill="#001133" stroke="#001133"></path><path d="M394 565L472 596L411 523Z" fill="#712163" stroke="#712163"></path><path d="M198 141L76 213L85 227Z" fill="#59215e" stroke="#59215e"></path><path d="M85 227L0 267L99 267Z" fill="#a12164" stroke="#a12164"></path><path d="M339 215L285 163L282 221Z" fill="#b72461" stroke="#b72461"></path><path d="M381 638L406 624L394 565Z" fill="#a12164" stroke="#a12164"></path><path d="M0 474L0 554L22 477Z" fill="#59215e" stroke="#59215e"></path><path d="M92 588L95 652L146 638Z" fill="#001133" stroke="#001133"></path><path d="M146 638L135 681L211 678Z" fill="#de3753" stroke="#de3753"></path><path d="M0 596L95 652L92 588Z" fill="#cc2b5b" stroke="#cc2b5b"></path><path d="M438 209L391 207L384 274Z" fill="#cc2b5b" stroke="#cc2b5b"></path><path d="M329 112L293 130L285 163Z" fill="#59215e" stroke="#59215e"></path><path d="M298 735L361 658L266 639Z" fill="#cc2b5b" stroke="#cc2b5b"></path><path d="M381 638L458 708L406 624Z" fill="#59215e" stroke="#59215e"></path><path d="M95 652L135 681L146 638Z" fill="#712163" stroke="#712163"></path><path d="M135 681L215 700L211 678Z" fill="#411f56" stroke="#411f56"></path><path d="M211 678L215 700L266 639Z" fill="#141740" stroke="#141740"></path><path d="M0 241L0 267L85 227Z" fill="#712163" stroke="#712163"></path><path d="M250 137L198 141L244 162Z" fill="#de3753" stroke="#de3753"></path><path d="M244 162L198 141L202 260Z" fill="#411f56" stroke="#411f56"></path><path d="M513 334L486 294L425 363Z" fill="#cc2b5b" stroke="#cc2b5b"></path><path d="M285 163L250 137L244 162Z" fill="#b72461" stroke="#b72461"></path><path d="M293 130L250 137L285 163Z" fill="#411f56" stroke="#411f56"></path><path d="M0 554L0 596L92 588Z" fill="#712163" stroke="#712163"></path><path d="M63 747L125 753L135 681Z" fill="#de3753" stroke="#de3753"></path><path d="M540 361L513 334L485 390Z" fill="#892165" stroke="#892165"></path><path d="M485 390L513 334L425 363Z" fill="#2a1c4c" stroke="#2a1c4c"></path><path d="M76 213L0 241L85 227Z" fill="#59215e" stroke="#59215e"></path><path d="M0 192L0 241L76 213Z" fill="#141740" stroke="#141740"></path><path d="M511 645L472 596L406 624Z" fill="#712163" stroke="#712163"></path><path d="M406 624L472 596L394 565Z" fill="#cc2b5b" stroke="#cc2b5b"></path><path d="M468 477L540 390L485 390Z" fill="#892165" stroke="#892165"></path><path d="M451 217L384 274L486 294Z" fill="#892165" stroke="#892165"></path><path d="M451 217L438 209L384 274Z" fill="#59215e" stroke="#59215e"></path><path d="M329 112L285 163L339 215Z" fill="#59215e" stroke="#59215e"></path><path d="M329 112L339 215L391 207Z" fill="#b72461" stroke="#b72461"></path><path d="M260 85L152 106L198 141Z" fill="#59215e" stroke="#59215e"></path><path d="M505 216L451 217L486 294Z" fill="#cc2b5b" stroke="#cc2b5b"></path><path d="M540 503L540 390L468 477Z" fill="#712163" stroke="#712163"></path><path d="M540 390L540 361L485 390Z" fill="#b72461" stroke="#b72461"></path><path d="M513 334L540 274L486 294Z" fill="#59215e" stroke="#59215e"></path><path d="M517 571L540 503L468 477Z" fill="#59215e" stroke="#59215e"></path><path d="M215 700L298 735L266 639Z" fill="#59215e" stroke="#59215e"></path><path d="M361 658L458 708L381 638Z" fill="#141740" stroke="#141740"></path><path d="M225 742L298 735L215 700Z" fill="#001133" stroke="#001133"></path><path d="M152 106L81 142L198 141Z" fill="#712163" stroke="#712163"></path><path d="M198 141L81 142L76 213Z" fill="#712163" stroke="#712163"></path><path d="M125 753L215 700L135 681Z" fill="#892165" stroke="#892165"></path><path d="M125 753L225 742L215 700Z" fill="#b72461" stroke="#b72461"></path><path d="M540 620L517 571L472 596Z" fill="#2a1c4c" stroke="#2a1c4c"></path><path d="M472 596L517 571L411 523Z" fill="#411f56" stroke="#411f56"></path><path d="M81 142L52 156L76 213Z" fill="#59215e" stroke="#59215e"></path><path d="M387 83L329 112L391 207Z" fill="#001133" stroke="#001133"></path><path d="M293 130L260 85L250 137Z" fill="#59215e" stroke="#59215e"></path><path d="M387 83L391 207L438 209Z" fill="#712163" stroke="#712163"></path><path d="M260 85L198 141L250 137Z" fill="#411f56" stroke="#411f56"></path><path d="M81 142L79 112L52 156Z" fill="#2a1c4c" stroke="#2a1c4c"></path><path d="M52 156L0 192L76 213Z" fill="#de3753" stroke="#de3753"></path><path d="M152 106L145 103L81 142Z" fill="#2a1c4c" stroke="#2a1c4c"></path><path d="M181 20L145 103L152 106Z" fill="#2a1c4c" stroke="#2a1c4c"></path><path d="M517 571L540 552L540 503Z" fill="#a12164" stroke="#a12164"></path><path d="M0 596L0 669L95 652Z" fill="#141740" stroke="#141740"></path><path d="M329 112L260 85L293 130Z" fill="#a12164" stroke="#a12164"></path><path d="M540 361L540 274L513 334Z" fill="#712163" stroke="#712163"></path><path d="M451 217L511 141L438 209Z" fill="#de3753" stroke="#de3753"></path><path d="M540 262L505 216L486 294Z" fill="#141740" stroke="#141740"></path><path d="M104 73L79 112L145 103Z" fill="#411f56" stroke="#411f56"></path><path d="M145 103L79 112L81 142Z" fill="#a12164" stroke="#a12164"></path><path d="M52 156L0 84L0 192Z" fill="#892165" stroke="#892165"></path><path d="M346 795L348 750L298 735Z" fill="#59215e" stroke="#59215e"></path><path d="M298 735L348 750L361 658Z" fill="#cc2b5b" stroke="#cc2b5b"></path><path d="M517 571L540 620L540 552Z" fill="#59215e" stroke="#59215e"></path><path d="M540 274L540 262L486 294Z" fill="#2a1c4c" stroke="#2a1c4c"></path><path d="M63 747L135 681L95 652Z" fill="#cc2b5b" stroke="#cc2b5b"></path><path d="M225 742L269 776L298 735Z" fill="#de3753" stroke="#de3753"></path><path d="M226 780L269 776L225 742Z" fill="#59215e" stroke="#59215e"></path><path d="M458 708L511 645L406 624Z" fill="#411f56" stroke="#411f56"></path><path d="M125 753L226 780L225 742Z" fill="#2a1c4c" stroke="#2a1c4c"></path><path d="M440 736L458 708L361 658Z" fill="#b72461" stroke="#b72461"></path><path d="M540 697L540 620L511 645Z" fill="#712163" stroke="#712163"></path><path d="M511 645L540 620L472 596Z" fill="#b72461" stroke="#b72461"></path><path d="M0 669L63 747L95 652Z" fill="#cc2b5b" stroke="#cc2b5b"></path><path d="M125 753L217 797L226 780Z" fill="#59215e" stroke="#59215e"></path><path d="M181 20L104 73L145 103Z" fill="#2a1c4c" stroke="#2a1c4c"></path><path d="M79 112L0 84L52 156Z" fill="#411f56" stroke="#411f56"></path><path d="M500 108L387 83L438 209Z" fill="#2a1c4c" stroke="#2a1c4c"></path><path d="M329 112L324 31L260 85Z" fill="#b72461" stroke="#b72461"></path><path d="M129 0L94 67L104 73Z" fill="#141740" stroke="#141740"></path><path d="M216 813L217 797L147 809Z" fill="#141740" stroke="#141740"></path><path d="M226 780L217 797L269 776Z" fill="#001133" stroke="#001133"></path><path d="M429 797L440 736L348 750Z" fill="#de3753" stroke="#de3753"></path><path d="M346 795L298 735L269 776Z" fill="#de3753" stroke="#de3753"></path><path d="M348 750L440 736L361 658Z" fill="#141740" stroke="#141740"></path><path d="M458 708L540 697L511 645Z" fill="#141740" stroke="#141740"></path><path d="M0 669L0 721L63 747Z" fill="#141740" stroke="#141740"></path><path d="M181 20L152 106L260 85Z" fill="#cc2b5b" stroke="#cc2b5b"></path><path d="M104 73L94 67L79 112Z" fill="#141740" stroke="#141740"></path><path d="M332 812L346 795L269 776Z" fill="#b72461" stroke="#b72461"></path><path d="M147 809L217 797L125 753Z" fill="#712163" stroke="#712163"></path><path d="M217 797L216 813L269 776Z" fill="#de3753" stroke="#de3753"></path><path d="M147 809L125 753L85 817Z" fill="#b72461" stroke="#b72461"></path><path d="M85 817L125 753L63 747Z" fill="#2a1c4c" stroke="#2a1c4c"></path><path d="M540 150L511 141L505 216Z" fill="#712163" stroke="#712163"></path><path d="M505 216L511 141L451 217Z" fill="#a12164" stroke="#a12164"></path><path d="M279 859L332 812L269 776Z" fill="#411f56" stroke="#411f56"></path><path d="M429 797L482 763L440 736Z" fill="#a12164" stroke="#a12164"></path><path d="M0 721L41 776L63 747Z" fill="#b72461" stroke="#b72461"></path><path d="M381 42L324 31L387 83Z" fill="#892165" stroke="#892165"></path><path d="M387 83L324 31L329 112Z" fill="#411f56" stroke="#411f56"></path><path d="M237 0L181 20L260 85Z" fill="#59215e" stroke="#59215e"></path><path d="M371 0L315 25L324 31Z" fill="#2a1c4c" stroke="#2a1c4c"></path><path d="M324 31L315 25L260 85Z" fill="#2a1c4c" stroke="#2a1c4c"></path><path d="M486 39L381 42L387 83Z" fill="#411f56" stroke="#411f56"></path><path d="M540 262L540 150L505 216Z" fill="#411f56" stroke="#411f56"></path><path d="M511 141L500 108L438 209Z" fill="#001133" stroke="#001133"></path><path d="M0 37L0 84L94 67Z" fill="#a12164" stroke="#a12164"></path><path d="M94 67L0 84L79 112Z" fill="#892165" stroke="#892165"></path><path d="M482 763L458 708L440 736Z" fill="#b72461" stroke="#b72461"></path><path d="M482 763L540 697L458 708Z" fill="#411f56" stroke="#411f56"></path><path d="M540 97L500 108L511 141Z" fill="#de3753" stroke="#de3753"></path><path d="M0 721L0 773L41 776Z" fill="#59215e" stroke="#59215e"></path><path d="M41 776L85 817L63 747Z" fill="#411f56" stroke="#411f56"></path><path d="M87 855L85 817L0 845Z" fill="#411f56" stroke="#411f56"></path><path d="M238 882L279 859L216 813Z" fill="#411f56" stroke="#411f56"></path><path d="M216 813L279 859L269 776Z" fill="#59215e" stroke="#59215e"></path><path d="M429 797L348 750L413 812Z" fill="#001133" stroke="#001133"></path><path d="M413 812L348 750L346 795Z" fill="#892165" stroke="#892165"></path><path d="M278 0L237 0L260 85Z" fill="#a12164" stroke="#a12164"></path><path d="M181 20L148 0L104 73Z" fill="#a12164" stroke="#a12164"></path><path d="M278 0L260 85L315 25Z" fill="#001133" stroke="#001133"></path><path d="M371 0L278 0L315 25Z" fill="#a12164" stroke="#a12164"></path><path d="M371 877L413 812L332 812Z" fill="#892165" stroke="#892165"></path><path d="M332 812L413 812L346 795Z" fill="#cc2b5b" stroke="#cc2b5b"></path><path d="M540 768L540 749L482 763Z" fill="#001133" stroke="#001133"></path><path d="M237 0L148 0L181 20Z" fill="#411f56" stroke="#411f56"></path><path d="M148 0L129 0L104 73Z" fill="#59215e" stroke="#59215e"></path><path d="M238 882L216 813L147 809Z" fill="#a12164" stroke="#a12164"></path><path d="M397 0L371 0L381 42Z" fill="#cc2b5b" stroke="#cc2b5b"></path><path d="M381 42L371 0L324 31Z" fill="#411f56" stroke="#411f56"></path><path d="M540 150L540 97L511 141Z" fill="#59215e" stroke="#59215e"></path><path d="M468 0L397 0L381 42Z" fill="#141740" stroke="#141740"></path><path d="M482 763L540 749L540 697Z" fill="#892165" stroke="#892165"></path><path d="M483 808L482 763L429 797Z" fill="#141740" stroke="#141740"></path><path d="M63 0L0 37L94 67Z" fill="#b72461" stroke="#b72461"></path><path d="M486 39L387 83L500 108Z" fill="#892165" stroke="#892165"></path><path d="M129 0L63 0L94 67Z" fill="#cc2b5b" stroke="#cc2b5b"></path><path d="M0 845L85 817L41 776Z" fill="#712163" stroke="#712163"></path><path d="M85 817L87 855L147 809Z" fill="#2a1c4c" stroke="#2a1c4c"></path><path d="M155 936L238 882L147 809Z" fill="#411f56" stroke="#411f56"></path><path d="M432 916L483 808L413 812Z" fill="#a12164" stroke="#a12164"></path><path d="M371 877L332 812L279 859Z" fill="#141740" stroke="#141740"></path><path d="M413 812L483 808L429 797Z" fill="#411f56" stroke="#411f56"></path><path d="M540 97L486 39L500 108Z" fill="#141740" stroke="#141740"></path><path d="M483 808L540 768L482 763Z" fill="#59215e" stroke="#59215e"></path><path d="M338 938L371 877L279 859Z" fill="#712163" stroke="#712163"></path><path d="M0 773L0 845L41 776Z" fill="#a12164" stroke="#a12164"></path><path d="M87 855L155 936L147 809Z" fill="#001133" stroke="#001133"></path><path d="M63 0L0 0L0 37Z" fill="#b72461" stroke="#b72461"></path><path d="M540 0L468 0L486 39Z" fill="#411f56" stroke="#411f56"></path><path d="M486 39L468 0L381 42Z" fill="#2a1c4c" stroke="#2a1c4c"></path><path d="M540 97L540 30L486 39Z" fill="#712163" stroke="#712163"></path><path d="M0 845L84 901L87 855Z" fill="#001133" stroke="#001133"></path><path d="M238 882L279 922L279 859Z" fill="#de3753" stroke="#de3753"></path><path d="M274 960L279 922L238 882Z" fill="#b72461" stroke="#b72461"></path><path d="M0 845L75 913L84 901Z" fill="#001133" stroke="#001133"></path><path d="M84 901L155 936L87 855Z" fill="#a12164" stroke="#a12164"></path><path d="M432 916L413 812L371 877Z" fill="#712163" stroke="#712163"></path><path d="M540 899L540 837L483 808Z" fill="#892165" stroke="#892165"></path><path d="M483 808L540 837L540 768Z" fill="#cc2b5b" stroke="#cc2b5b"></path><path d="M100 960L155 936L84 901Z" fill="#a12164" stroke="#a12164"></path><path d="M540 30L540 0L486 39Z" fill="#2a1c4c" stroke="#2a1c4c"></path><path d="M279 922L338 938L279 859Z" fill="#a12164" stroke="#a12164"></path><path d="M288 960L338 938L279 922Z" fill="#712163" stroke="#712163"></path><path d="M363 960L432 916L371 877Z" fill="#712163" stroke="#712163"></path><path d="M163 960L274 960L238 882Z" fill="#411f56" stroke="#411f56"></path><path d="M413 960L449 929L432 916Z" fill="#a12164" stroke="#a12164"></path><path d="M274 960L288 960L279 922Z" fill="#2a1c4c" stroke="#2a1c4c"></path><path d="M155 936L163 960L238 882Z" fill="#411f56" stroke="#411f56"></path><path d="M100 960L163 960L155 936Z" fill="#712163" stroke="#712163"></path><path d="M0 845L0 914L75 913Z" fill="#a12164" stroke="#a12164"></path><path d="M75 913L100 960L84 901Z" fill="#001133" stroke="#001133"></path><path d="M363 960L371 877L338 938Z" fill="#de3753" stroke="#de3753"></path><path d="M432 916L449 929L483 808Z" fill="#59215e" stroke="#59215e"></path><path d="M288 960L363 960L338 938Z" fill="#712163" stroke="#712163"></path><path d="M27 960L100 960L75 913Z" fill="#141740" stroke="#141740"></path><path d="M363 960L413 960L432 916Z" fill="#de3753" stroke="#de3753"></path><path d="M492 960L540 899L449 929Z" fill="#b72461" stroke="#b72461"></path><path d="M449 929L540 899L483 808Z" fill="#001133" stroke="#001133"></path><path d="M0 914L27 960L75 913Z" fill="#141740" stroke="#141740"></path><path d="M0 914L0 960L27 960Z" fill="#2a1c4c" stroke="#2a1c4c"></path><path d="M413 960L492 960L449 929Z" fill="#001133" stroke="#001133"></path><path d="M492 960L540 960L540 899Z" fill="#141740" stroke="#141740"></path></g></svg>