<svg id="visual" viewBox="0 0 900 300" width="900" height="300" xmlns="http://www.w3.org/2000/svg" xmlns:xlink="http://www.w3.org/1999/xlink" version="1.1"><rect x="0" y="0" width="900" height="300" fill="#000331"></rect><path d="M0 237L25 227.8C50 218.7 100 200.3 150 209.5C200 218.7 250 255.3 300 267C350 278.7 400 265.3 450 242.8C500 220.3 550 188.7 600 168.5C650 148.3 700 139.7 750 150.8C800 162 850 193 875 208.5L900 224L900 301L875 301C850 301 800 301 750 301C700 301 650 301 600 301C550 301 500 301 450 301C400 301 350 301 300 301C250 301 200 301 150 301C100 301 50 301 25 301L0 301Z" fill="#ce2858" stroke-linecap="round" stroke-linejoin="miter"></path></svg>