<svg id="visual" viewBox="0 0 900 600" width="900" height="600" xmlns="http://www.w3.org/2000/svg" xmlns:xlink="http://www.w3.org/1999/xlink" version="1.1"><path d="M0 488L21.5 493.2C43 498.3 86 508.7 128.8 493.8C171.7 479 214.3 439 257.2 438.7C300 438.3 343 477.7 385.8 478.5C428.7 479.3 471.3 441.7 514.2 436.8C557 432 600 460 642.8 464.2C685.7 468.3 728.3 448.7 771.2 444.8C814 441 857 453 878.5 459L900 465L900 601L878.5 601C857 601 814 601 771.2 601C728.3 601 685.7 601 642.8 601C600 601 557 601 514.2 601C471.3 601 428.7 601 385.8 601C343 601 300 601 257.2 601C214.3 601 171.7 601 128.8 601C86 601 43 601 21.5 601L0 601Z" fill="#ce2858" stroke-linecap="round" stroke-linejoin="miter"></path></svg>