<svg id="visual" viewBox="0 0 675 900" width="675" height="900" xmlns="http://www.w3.org/2000/svg" xmlns:xlink="http://www.w3.org/1999/xlink" version="1.1"><rect x="0" y="0" width="675" height="900" fill="#000331"></rect><path d="M0 604L16 609.5C32 615 64 626 96.2 652.8C128.3 679.7 160.7 722.3 192.8 730.7C225 739 257 713 289.2 682.5C321.3 652 353.7 617 385.8 619.5C418 622 450 662 482.2 667C514.3 672 546.7 642 578.8 620.2C611 598.3 643 584.7 659 577.8L675 571L675 901L659 901C643 901 611 901 578.8 901C546.7 901 514.3 901 482.2 901C450 901 418 901 385.8 901C353.7 901 321.3 901 289.2 901C257 901 225 901 192.8 901C160.7 901 128.3 901 96.2 901C64 901 32 901 16 901L0 901Z" fill="#ce2858" stroke-linecap="round" stroke-linejoin="miter"></path></svg>