<svg id="visual" viewBox="0 0 960 540" width="960" height="540" xmlns="http://www.w3.org/2000/svg" xmlns:xlink="http://www.w3.org/1999/xlink" version="1.1"><path d="M0 416L20 419.3C40 422.7 80 429.3 120 411C160 392.7 200 349.3 240 327.5C280 305.7 320 305.3 360 324.8C400 344.3 440 383.7 480 392.3C520 401 560 379 600 356.8C640 334.7 680 312.3 720 325.2C760 338 800 386 840 402.3C880 418.7 920 403.3 940 395.7L960 388L960 541L940 541C920 541 880 541 840 541C800 541 760 541 720 541C680 541 640 541 600 541C560 541 520 541 480 541C440 541 400 541 360 541C320 541 280 541 240 541C200 541 160 541 120 541C80 541 40 541 20 541L0 541Z" fill="#ce2858" stroke-linecap="round" stroke-linejoin="miter"></path></svg>