<svg id="visual" viewBox="0 0 960 540" width="960" height="540" xmlns="http://www.w3.org/2000/svg" xmlns:xlink="http://www.w3.org/1999/xlink" version="1.1"><rect x="0" y="0" width="960" height="540" fill="#000331"></rect><path d="M0 400L22.8 391.8C45.7 383.7 91.3 367.3 137 376.2C182.7 385 228.3 419 274 425.5C319.7 432 365.3 411 411.2 392.2C457 373.3 503 356.7 548.8 357.2C594.7 357.7 640.3 375.3 686 390.2C731.7 405 777.3 417 823 409.7C868.7 402.3 914.3 375.7 937.2 362.3L960 349L960 541L937.2 541C914.3 541 868.7 541 823 541C777.3 541 731.7 541 686 541C640.3 541 594.7 541 548.8 541C503 541 457 541 411.2 541C365.3 541 319.7 541 274 541C228.3 541 182.7 541 137 541C91.3 541 45.7 541 22.8 541L0 541Z" fill="#ce2858" stroke-linecap="round" stroke-linejoin="miter"></path></svg>