<svg id="visual" viewBox="0 0 675 900" width="675" height="900" xmlns="http://www.w3.org/2000/svg" xmlns:xlink="http://www.w3.org/1999/xlink" version="1.1"><rect x="0" y="0" width="675" height="900" fill="#000331"></rect><path d="M0 294L16 288.5C32 283 64 272 96.2 245.2C128.3 218.3 160.7 175.7 192.8 167.3C225 159 257 185 289.2 215.5C321.3 246 353.7 281 385.8 278.5C418 276 450 236 482.2 231C514.3 226 546.7 256 578.8 277.8C611 299.7 643 313.3 659 320.2L675 327L675 0L659 0C643 0 611 0 578.8 0C546.7 0 514.3 0 482.2 0C450 0 418 0 385.8 0C353.7 0 321.3 0 289.2 0C257 0 225 0 192.8 0C160.7 0 128.3 0 96.2 0C64 0 32 0 16 0L0 0Z" fill="#ce2858" stroke-linecap="round" stroke-linejoin="miter"></path></svg>